<svg xmlns="http://www.w3.org/2000/svg" width="45.333" height="41" viewBox="0 0 45.333 41">
  <g id="Group_2267" data-name="Group 2267" transform="translate(-122 -152)">
    <path id="Path_2649" data-name="Path 2649" d="M38.833,3H8.5A6.5,6.5,0,0,0,2,9.5V26.833a6.5,6.5,0,0,0,6.5,6.5h13v4.333H12.833a2.167,2.167,0,1,0,0,4.333H34.5a2.167,2.167,0,1,0,0-4.333H25.833V33.333h13a6.5,6.5,0,0,0,6.5-6.5V9.5A6.5,6.5,0,0,0,38.833,3ZM41,26.833A2.167,2.167,0,0,1,38.833,29H8.5a2.167,2.167,0,0,1-2.167-2.167V9.5A2.167,2.167,0,0,1,8.5,7.333H38.833A2.167,2.167,0,0,1,41,9.5Z" transform="translate(121 150)" fill="#fff" stroke="#484848" stroke-width="2"/>
    <g id="Group_2153" data-name="Group 2153" transform="translate(134.037 161.508)">
      <path id="Path_2650" data-name="Path 2650" d="M11.481,5.906a9.339,9.339,0,0,1,8.4,5.241,9.358,9.358,0,0,1-16.808,0,9.324,9.324,0,0,1,8.4-5.241m0-1.906A11.269,11.269,0,0,0,1,11.146a11.261,11.261,0,0,0,20.963,0A11.271,11.271,0,0,0,11.481,4Z" transform="translate(-1 -4)" fill="#ff3434"/>
      <path id="Path_2651" data-name="Path 2651" d="M11.788,7a4.288,4.288,0,1,0,4.288,4.288A4.282,4.282,0,0,0,11.788,7m0,6.67a2.382,2.382,0,1,1,2.382-2.382,2.383,2.383,0,0,1-2.382,2.382" transform="translate(-1.307 -4.141)" fill="#ff3434"/>
    </g>
  </g>
</svg>
