<svg xmlns="http://www.w3.org/2000/svg" width="17" height="17" viewBox="0 0 17 17">
  <g id="Group_2311" data-name="Group 2311" transform="translate(-4 -3)" opacity="0.7">
    <path id="Path_2643" data-name="Path 2643" d="M15.631,3l2.062,2.058L15.1,7.626,16.374,8.9l2.568-2.586L21,8.372V3Z" fill="#fff"/>
    <path id="Path_2680" data-name="Path 2680" d="M15.9,13.1l-.888-.667v-.8l.888-.666a.391.391,0,0,0,.069-.267l-.82-1.4c0-.067-.137-.067-.205-.067h-.069l-1.025.4c-.2-.133-.478-.266-.683-.4l-.137-.866c0-.067,0-.267-.2-.267h-1.64c-.136,0-.2.2-.2.267l-.136.866a2.3,2.3,0,0,0-.684.4l-1.025-.4H9.07c-.068,0-.137.067-.2.067l-.82,1.4a.164.164,0,0,0,.068.267L9,11.633v.8l-.889.667a.4.4,0,0,0-.068.267l.82,1.4a.257.257,0,0,0,.2.066h.068l1.025-.4c.2.134.479.267.684.4l.136,1.067a.216.216,0,0,0,.2.2h1.64a.216.216,0,0,0,.2-.2l.137-1.067a2.261,2.261,0,0,0,.683-.4l1.025.4h.069c.068,0,.136-.066.205-.066l.82-1.4C16.04,13.3,15.972,13.167,15.9,13.1Zm-3.9.4A1.5,1.5,0,1,1,13.5,12,1.5,1.5,0,0,1,12,13.5Z" fill="#fff"/>
    <path id="Path_2681" data-name="Path 2681" d="M18.2,10v8a.2.2,0,0,1-.2.2H6a.2.2,0,0,1-.2-.2V6A.2.2,0,0,1,6,5.8h8V4H6A2,2,0,0,0,4,6V18a2,2,0,0,0,2,2H18a2,2,0,0,0,2-2V10Z" fill="#fff"/>
  </g>
</svg>
