<svg xmlns="http://www.w3.org/2000/svg" width="16" height="19.729" viewBox="0 0 16 19.729">
  <g id="Group_2310" data-name="Group 2310" transform="translate(-4 -2)" opacity="0.7">
    <g id="_" data-name=" " style="isolation: isolate">
      <g id="Group_2300" data-name="Group 2300" style="isolation: isolate">
        <path id="Path_2674" data-name="Path 2674" d="M11.107,13.4a2.9,2.9,0,0,1,.2-1.238,3.6,3.6,0,0,1,.859-.936,5.392,5.392,0,0,0,.751-.881,1.644,1.644,0,0,0,.279-.929,1.244,1.244,0,0,0-.318-.911,1.211,1.211,0,0,0-.905-.324,1.345,1.345,0,0,0-.854.275.973.973,0,0,0-.351.815H9.351l-.018-.037a2,2,0,0,1,.723-1.68,2.944,2.944,0,0,1,1.917-.6,2.84,2.84,0,0,1,1.983.648,2.309,2.309,0,0,1,.712,1.8,2.492,2.492,0,0,1-.446,1.426,5.535,5.535,0,0,1-1.123,1.2,1.383,1.383,0,0,0-.433.575,2.744,2.744,0,0,0-.088.8ZM12.6,15.9H11.1V14.485h1.5Z" fill="#fff"/>
      </g>
    </g>
    <path id="Path_2675" data-name="Path 2675" d="M12,21.729l-.369-.185C11.318,21.387,4,17.65,4,11.845V5l8-3,8,3v6.842c0,5.83-7.32,9.544-7.631,9.7ZM5.653,6.149v5.7c0,4.133,4.939,7.223,6.348,8.019,1.407-.794,6.346-3.879,6.346-8.019v-5.7L12,3.766Z" fill="#fff"/>
  </g>
</svg>
